<svg id="Layer_1" data-name="Layer 1" xmlns="http://www.w3.org/2000/svg" viewBox="0 0 638 117.42"><defs><style>.cls-1{fill:#1a1818;}</style></defs><title>Van Heusen Logo Vector</title><path class="cls-1" d="M363.92,465.57h-1.13v50.69l-25.94-49.34-2.14-4.07v87.61h9.51V499.85c5.89,11.13,21.81,40.63,25.53,47.54l2.13,4V465.57h-8Z" transform="translate(-181 -438.1)"/><path class="cls-1" d="M817.87,465.57h-8v50.69L784,466.92l-2.14-4.07v87.61h9.51V499.85c5.89,11.13,21.81,40.63,25.53,47.54l2.13,4V465.57Z" transform="translate(-181 -438.1)"/><path class="cls-1" d="M665.31,504.21,665,504c-6.58-4.43-12.81-8.61-12.81-17.15a10.74,10.74,0,0,1,9.62-11.74c.25,0,.5,0,.74-.05a14.37,14.37,0,0,1,10.89,6l2,2.26V470.27l-.5-.34a22.7,22.7,0,0,0-13.19-4.43,17.81,17.81,0,0,0-14.46,7,24.84,24.84,0,0,0-5,15.3,25.91,25.91,0,0,0,14.12,22.26l1.3.91c6.37,4.43,11.87,8.26,11.74,16.36a13.77,13.77,0,0,1-3.59,10,10.05,10.05,0,0,1-7.37,3,17.29,17.29,0,0,1-12-6.12l-2-2.09V545.2l.44.35a21.93,21.93,0,0,0,13.35,4.23,19.67,19.67,0,0,0,15.52-7.38A25.92,25.92,0,0,0,679.23,526,25.53,25.53,0,0,0,665.31,504.21Z" transform="translate(-181 -438.1)"/><path class="cls-1" d="M599.31,465.56h-1.14v56.7c0,14.42-1.12,18.91-8.12,18.91s-8.24-4.49-8.24-18.91v-56.7h-9.65v57.12a50.31,50.31,0,0,0,2.5,19.45,15.07,15.07,0,0,0,15.4,8.69c16.48,0,17.81-12.74,17.81-28.12V465.58h-8.56Z" transform="translate(-181 -438.1)"/><path class="cls-1" d="M506.67,465.6h-1.14v85h27.61v-9.25H515.29V511.14h17.35v-9.29H515.29V474.93h17.85v-9.31H506.67Z" transform="translate(-181 -438.1)"/><path class="cls-1" d="M718.79,465.6h-1.13v85h27.61v-9.25H727.42V511.14h17.35v-9.29H727.42V474.93h17.85v-9.31H718.79Z" transform="translate(-181 -438.1)"/><path class="cls-1" d="M452.54,438.1H451.4v44.06H426.22v-44H415.51V550.75h10.71v-57H451.4v57H462V438.1Z" transform="translate(-181 -438.1)"/><path class="cls-1" d="M280,467l-1.11-4.58L277.77,467,258.24,549.2l-.33,1.39h1.41l8.63.06h1l.18-.95,3-16.4h14.05l3,16.41.17.94h1l8.77-.06h1.43l-.34-1.4Zm4.53,58H273.7l5-25Z" transform="translate(-181 -438.1)"/><path class="cls-1" d="M224.93,438.1H224l-.18.92c-.53,2.64-11.21,56-14.63,74.47l-15.36-74.43-.18-.91h-.92l-10.29,0H181l.33,1.41,26.46,111.36,1.1,4.66,1.1-4.66,26.25-111.31.32-1.39h-1.42Z" transform="translate(-181 -438.1)"/></svg>