<?xml version="1.0" encoding="UTF-8"?>
<svg xmlns="http://www.w3.org/2000/svg" xmlns:xlink="http://www.w3.org/1999/xlink" width="32px" height="32px" viewBox="0 0 32 32" version="1.1">
<g id="surface1">
<path style=" stroke:none;fill-rule:evenodd;fill:rgb(50.196081%,0%,0%);fill-opacity:1;" d="M 26.738281 10.902344 C 25.21875 12.0625 24.238281 13.890625 24.238281 15.945312 C 24.238281 18.15625 25.371094 20.101562 27.089844 21.238281 C 27.273438 21.367188 27.644531 21.636719 27.65625 21.683594 C 28.488281 22.441406 29.007812 23.527344 29.007812 24.738281 C 29.007812 27.023438 27.148438 28.878906 24.851562 28.878906 C 23.71875 28.878906 22.695312 28.429688 21.945312 27.699219 C 21.710938 27.46875 21.523438 27.199219 21.339844 26.929688 L 21.207031 26.734375 C 20.015625 25.25 18.175781 24.195312 16.058594 24.195312 C 14.082031 24.195312 12.117188 25.144531 10.9375 26.71875 C 10.90625 26.753906 10.878906 26.789062 10.851562 26.820312 C 10.484375 27.269531 10.113281 27.726562 9.644531 28.066406 C 9.558594 28.132812 9.453125 28.203125 9.320312 28.292969 C 8.710938 28.644531 8.035156 28.878906 7.277344 28.878906 C 4.984375 28.878906 3.121094 27.023438 3.121094 24.738281 C 3.121094 23.40625 3.753906 22.21875 4.738281 21.460938 C 4.746094 21.453125 4.757812 21.445312 4.769531 21.4375 C 4.878906 21.359375 4.988281 21.28125 5.101562 21.207031 C 5.316406 21.058594 5.535156 20.910156 5.726562 20.734375 C 7.027344 19.558594 7.84375 17.785156 7.84375 15.910156 C 7.84375 13.777344 6.785156 11.886719 5.164062 10.734375 L 4.957031 10.601562 C 3.851562 9.859375 3.121094 8.597656 3.121094 7.167969 C 3.121094 4.878906 4.984375 3.027344 7.277344 3.027344 C 8.183594 3.027344 9.019531 3.3125 9.703125 3.804688 C 10.171875 4.136719 10.527344 4.597656 10.878906 5.054688 C 10.898438 5.078125 10.917969 5.101562 10.9375 5.125 C 12.097656 6.683594 13.960938 7.695312 16.058594 7.695312 C 17.976562 7.695312 19.695312 6.851562 20.863281 5.515625 C 21.023438 5.332031 21.167969 5.136719 21.3125 4.941406 C 21.4375 4.765625 21.566406 4.589844 21.707031 4.421875 C 21.734375 4.386719 21.761719 4.355469 21.789062 4.332031 C 22.546875 3.527344 23.621094 3.027344 24.816406 3.027344 C 27.113281 3.027344 28.972656 4.878906 28.972656 7.167969 C 28.972656 8.042969 28.699219 8.859375 28.230469 9.527344 C 28.078125 9.75 27.707031 10.101562 27.648438 10.160156 C 27.640625 10.167969 27.636719 10.171875 27.632812 10.175781 C 27.382812 10.414062 27.105469 10.621094 26.832031 10.832031 C 26.800781 10.855469 26.769531 10.878906 26.738281 10.902344 Z M 16.058594 19.179688 C 17.851562 19.179688 19.304688 17.730469 19.304688 15.945312 C 19.304688 14.160156 17.851562 12.710938 16.058594 12.710938 C 14.265625 12.710938 12.8125 14.160156 12.8125 15.945312 C 12.8125 17.730469 14.265625 19.179688 16.058594 19.179688 Z M 16.058594 19.179688 "/>
<path style=" stroke:none;fill-rule:nonzero;fill:rgb(89.019608%,10.196079%,21.568628%);fill-opacity:1;" d="M 28.996094 6.902344 C 28.996094 9.058594 27.238281 10.808594 25.070312 10.808594 C 22.902344 10.808594 21.144531 9.058594 21.144531 6.902344 C 21.144531 4.742188 22.902344 2.992188 25.070312 2.992188 C 27.238281 2.992188 28.996094 4.742188 28.996094 6.902344 Z M 28.996094 6.902344 "/>
<path style=" stroke:none;fill-rule:nonzero;fill:rgb(89.019608%,10.196079%,21.568628%);fill-opacity:1;" d="M 10.96875 24.921875 C 10.96875 27.078125 9.214844 28.828125 7.046875 28.828125 C 4.878906 28.828125 3.121094 27.078125 3.121094 24.921875 C 3.121094 22.761719 4.878906 21.011719 7.046875 21.011719 C 9.214844 21.011719 10.96875 22.761719 10.96875 24.921875 Z M 10.96875 24.921875 "/>
<path style=" stroke:none;fill-rule:evenodd;fill:rgb(89.019608%,10.196079%,21.568628%);fill-opacity:1;" d="M 27.820312 27.625 C 26.367188 29.074219 24.023438 29.09375 22.59375 27.667969 C 21.867188 26.945312 21.679688 25.875 21.496094 24.847656 C 21.46875 24.683594 21.441406 24.523438 21.410156 24.363281 C 21.304688 23.816406 21.1875 23.207031 21.078125 22.636719 C 20.847656 21.417969 19.792969 20.367188 18.570312 20.136719 C 18 20.03125 17.386719 19.914062 16.839844 19.808594 C 16.679688 19.777344 16.515625 19.75 16.351562 19.722656 C 15.320312 19.542969 14.242188 19.351562 13.519531 18.632812 L 13.363281 18.472656 C 12.636719 17.753906 12.449219 16.679688 12.265625 15.652344 C 12.238281 15.492188 12.207031 15.328125 12.179688 15.167969 C 12.074219 14.621094 11.957031 14.011719 11.847656 13.441406 C 11.617188 12.226562 10.5625 11.175781 9.339844 10.945312 C 8.769531 10.835938 8.15625 10.71875 7.609375 10.617188 C 7.445312 10.585938 7.285156 10.554688 7.121094 10.527344 C 6.089844 10.347656 5.011719 10.160156 4.289062 9.4375 C 2.855469 8.011719 2.875 5.679688 4.328125 4.230469 C 5.785156 2.78125 8.125 2.761719 9.558594 4.1875 C 10.28125 4.910156 10.472656 5.980469 10.652344 7.007812 C 10.683594 7.171875 10.710938 7.335938 10.742188 7.496094 C 10.847656 8.039062 10.964844 8.648438 11.070312 9.21875 C 11.304688 10.4375 12.359375 11.488281 13.578125 11.71875 C 14.152344 11.824219 14.761719 11.941406 15.3125 12.046875 C 15.472656 12.078125 15.636719 12.105469 15.800781 12.132812 C 16.832031 12.316406 17.90625 12.503906 18.632812 13.226562 L 18.789062 13.382812 C 19.515625 14.105469 19.703125 15.175781 19.882812 16.203125 C 19.914062 16.367188 19.941406 16.527344 19.972656 16.6875 C 20.078125 17.234375 20.195312 17.84375 20.300781 18.414062 C 20.535156 19.628906 21.589844 20.679688 22.8125 20.914062 C 23.382812 21.019531 23.996094 21.136719 24.542969 21.242188 C 24.703125 21.269531 24.867188 21.300781 25.03125 21.328125 C 26.0625 21.507812 27.136719 21.699219 27.863281 22.417969 C 29.296875 23.84375 29.277344 26.175781 27.820312 27.625 Z M 16.898438 16.347656 C 16.898438 16.1875 16.988281 16.046875 17.109375 15.949219 C 17.496094 15.648438 17.746094 15.179688 17.746094 14.652344 C 17.746094 13.742188 17.003906 13 16.089844 13 C 15.171875 13 14.433594 13.742188 14.433594 14.652344 C 14.433594 15.171875 14.671875 15.632812 15.046875 15.9375 C 15.167969 16.03125 15.253906 16.171875 15.253906 16.328125 L 15.253906 18.035156 C 15.253906 18.488281 15.621094 18.855469 16.078125 18.855469 C 16.53125 18.855469 16.898438 18.488281 16.898438 18.035156 Z M 16.898438 16.347656 "/>
</g>
</svg>
