<svg width="153" height="31" viewBox="0 0 153 31" fill="none" xmlns="http://www.w3.org/2000/svg">
<g clip-path="url(#clip0_18790_10280)">
<path d="M93.5191 17.9275C93.5191 17.8161 93.5129 17.7062 93.5098 17.5948C93.5068 17.5047 93.5068 17.4147 93.5022 17.3261C93.4991 17.2773 93.4945 17.23 93.4914 17.1811C93.1092 10.9 88.1187 5.91182 82.0352 5.91182C81.9937 5.91182 81.9538 5.91487 81.9124 5.91487C81.6284 5.89656 81.3428 5.88282 81.0558 5.88282C77.4345 5.88282 74.1694 7.38478 71.8914 9.77663C69.9756 7.36341 67.0037 5.80955 63.6695 5.80955L63.516 5.8126C59.9501 5.84771 56.8062 7.66106 54.9457 10.3948C53.0637 7.64427 49.883 5.83245 46.2817 5.83245L46.1282 5.8355C43.7151 5.85992 41.4969 6.69943 39.7377 8.08539C39.7408 8.01518 39.7423 7.94496 39.7423 7.87475C39.7423 4.63424 37.1772 1.99817 34.0242 1.99817C30.8711 1.99817 28.306 4.63424 28.306 7.87475C28.306 7.94649 28.3091 8.01823 28.3106 8.08844C26.5253 6.68417 24.2688 5.84161 21.8157 5.84161L21.6638 5.84466C19.8693 5.86297 18.1454 6.32547 16.6226 7.18177C15.0752 6.31784 13.3222 5.8584 11.5 5.8584L11.3465 5.86145C5.63298 5.92098 1.00012 10.5413 1.00012 16.2134V24.6818C1.00012 27.5865 3.38716 29.9508 6.32069 29.9508C10.7386 29.9508 11.4801 28.1665 11.4801 28.1665C11.4801 28.1665 13.0428 29.9478 16.6379 29.9478C20.6475 29.9478 21.7973 27.936 21.7973 27.936C21.7973 27.936 22.376 29.9295 26.9536 29.9295C28.3244 29.9295 29.5755 29.4136 30.5196 28.5679C31.456 29.383 32.6841 29.8791 34.0257 29.8791C35.3674 29.8791 36.6 29.3815 37.538 28.5634C38.482 29.409 39.7316 29.9234 41.1024 29.9234C44.3829 29.9234 46.2603 28.2291 46.2603 28.2291C46.2603 28.2291 47.7232 29.9203 51.4181 29.9203C52.7797 29.9203 54.0247 29.4105 54.9657 28.5741C55.9051 29.3983 57.1378 29.899 58.4887 29.899C62.5858 29.899 63.648 28.165 63.648 28.165C63.648 28.165 64.6612 29.8959 68.8059 29.8959C71.0763 29.8959 72.6252 28.919 73.4434 27.4491C75.551 29.0274 78.1929 29.9692 81.0589 29.9692C81.1172 29.9692 81.1755 29.9661 81.2354 29.9646C81.501 29.9844 81.7681 29.9966 82.0382 29.9966C88.3689 29.9966 93.5206 24.5932 93.5206 17.9535C93.5206 17.9489 93.5206 17.9443 93.5206 17.9382C93.5206 17.9336 93.5206 17.929 93.5206 17.9245L93.5191 17.9275Z" fill="#2E3672"/>
<path d="M34.0222 12.3344C35.1873 12.3344 36.1406 13.2732 36.1406 14.4195V24.6127C36.1406 25.759 35.1873 26.6977 34.0222 26.6977C32.8571 26.6977 31.9038 25.759 31.9038 24.6127V14.4195C31.9038 13.2732 32.8571 12.3344 34.0222 12.3344Z" fill="white"/>
<path d="M82.0328 9.09683C86.5873 9.09683 90.313 13.0837 90.313 17.956C90.313 22.8282 86.5873 26.8151 82.0328 26.8151C77.4782 26.8151 73.7526 22.8282 73.7526 17.956C73.7526 13.0837 77.4536 9.09683 82.0328 9.09683ZM77.6501 17.956C77.6501 20.5356 79.6227 22.6465 82.0328 22.6465C84.4428 22.6465 86.4154 20.5356 86.4154 17.956C86.4154 15.3764 84.4428 13.2654 82.0328 13.2654C79.6227 13.2654 77.6501 15.3764 77.6501 17.956Z" fill="white"/>
<path d="M46.2334 9.02207C42.2361 9.02207 38.9802 12.2275 38.9802 16.1884V24.6568C38.9802 25.8291 39.9334 26.7419 41.0986 26.7419C42.2637 26.7419 43.217 25.8031 43.217 24.6568V16.1884C43.217 14.5201 44.5939 13.1921 46.261 13.1921V13.1891C47.925 13.1937 49.2974 14.5201 49.2974 16.1854V24.6538C49.2974 25.8001 50.2507 26.7388 51.4158 26.7388C52.5809 26.7388 53.5342 25.8276 53.5342 24.6538V16.1854C53.5342 12.2244 50.2783 9.01901 46.281 9.01901L46.2365 9.02207H46.2334Z" fill="white"/>
<path d="M63.6211 8.99762C59.6238 8.99762 56.3679 12.203 56.3679 16.164V24.6324C56.3679 25.8046 57.3211 26.7174 58.4863 26.7174C59.6514 26.7174 60.6047 25.7787 60.6047 24.6324V16.164C60.6047 14.4957 61.9816 13.1677 63.6487 13.1677V13.1647C65.3127 13.1692 66.6851 14.4957 66.6851 16.1609V24.6293C66.6851 25.7756 67.6384 26.7144 68.8035 26.7144C69.9686 26.7144 70.9219 25.8031 70.9219 24.6293V16.1609C70.9219 12.2 67.666 8.99457 63.6687 8.99457L63.6242 8.99762H63.6211Z" fill="white"/>
<path d="M21.8152 9.02826L21.7706 9.03131C19.7628 9.03131 17.9422 9.8403 16.6281 11.1469C15.3141 9.84945 13.4997 9.04658 11.4995 9.04658L11.4549 9.04963C7.45761 9.04963 4.20172 12.255 4.20172 16.216V24.6844C4.20172 25.8566 5.155 26.7694 6.32012 26.7694C7.48525 26.7694 8.43853 25.8307 8.43853 24.6844V16.216C8.43853 14.5477 9.81549 13.2197 11.4826 13.2197V13.2167C13.1466 13.2212 14.519 14.5477 14.519 16.213V24.6813C14.519 25.8276 15.4722 26.7664 16.6374 26.7664C17.8025 26.7664 18.7558 25.8551 18.7558 24.6813V24.6722C18.7558 24.6722 18.7558 24.6676 18.7558 24.6661V16.1977C18.7558 14.5293 20.1327 13.2014 21.7998 13.2014V13.1983C23.4638 13.2029 24.8362 14.5293 24.8362 16.1946V24.663C24.8362 25.8093 25.7895 26.7481 26.9546 26.7481C28.1197 26.7481 29.073 25.8368 29.073 24.663V16.1946C29.073 12.2337 25.8171 9.02826 21.8198 9.02826H21.8152Z" fill="white"/>
<path d="M34.0223 10.5684C35.4118 10.5684 36.5383 9.36359 36.5383 7.87739C36.5383 6.39118 35.4118 5.18637 34.0223 5.18637C32.6327 5.18637 31.5063 6.39118 31.5063 7.87739C31.5063 9.36359 32.6327 10.5684 34.0223 10.5684Z" fill="white"/>
<path d="M83.4102 17.9558C84.1698 17.9558 84.7856 17.297 84.7856 16.4844C84.7856 15.6717 84.1698 15.0129 83.4102 15.0129C82.6506 15.0129 82.0348 15.6717 82.0348 16.4844C82.0348 17.297 82.6506 17.9558 83.4102 17.9558Z" fill="white"/>
<path d="M113.06 25.942H107.3L104.113 20.7355L102.451 22.8174V25.942H97.6015V10.0966H102.451V16.4799L107.231 10.0966H112.694L107.094 17.0691L113.058 25.942H113.06Z" fill="#2E3672"/>
<path d="M114.699 25.942V10.0966H119.456V25.942H114.699Z" fill="#2E3672"/>
<path d="M122.817 10.0963C124.114 10.0505 126.71 10.0063 127.939 10.0291C134.176 10.1421 138.275 12.4286 138.275 17.9297C138.275 23.0675 134.678 26.0562 126.415 26.0562C125.162 26.0562 124.025 25.9875 122.818 25.9432V10.0963H122.817ZM127.666 22.0708C128.03 22.0937 128.417 22.0937 128.873 22.0479C131.446 21.7991 133.403 20.5994 133.403 17.9053C133.403 15.2112 131.309 14.2603 128.804 14.0344C128.303 13.9886 127.984 13.9886 127.665 14.0115V22.0693L127.666 22.0708Z" fill="#2E3672"/>
<path d="M151.682 11.0245L151.045 14.7595C149.885 14.239 148.472 13.8315 146.97 13.8315C145.673 13.8315 144.51 14.1261 144.557 14.8725C144.603 15.7547 146.287 15.6876 148.267 16.118C150.453 16.5927 153.002 17.6795 153.002 20.804C153.002 24.4261 149.61 26.1921 145.9 26.1921C143.009 26.1921 140.504 25.1054 139.503 24.6307L140.55 20.8284C141.416 21.2818 143.396 22.2312 145.649 22.2098C147.22 22.1869 148.153 21.7351 148.153 21.1001C148.153 20.1721 146.15 20.3308 144.101 19.8332C141.71 19.244 139.73 17.8184 139.707 15.0343C139.661 11.2534 143.213 9.87357 146.377 9.87357C148.631 9.87357 150.589 10.5528 151.681 11.0275L151.682 11.0245Z" fill="#2E3672"/>
</g>
<defs>
<clipPath id="clip0_18790_10280">
<rect width="152" height="28" fill="white" transform="translate(1 2)"/>
</clipPath>
</defs>
</svg>
